<svg width="29" height="28" viewBox="0 0 29 28" fill="none" xmlns="http://www.w3.org/2000/svg">
<path d="M25.5095 10.5427C24.9086 9.12046 24.0376 7.82833 22.9445 6.73792C21.8541 5.64488 20.562 4.77378 19.1398 4.17292C17.6622 3.5477 16.0965 3.23242 14.48 3.23242C12.8635 3.23242 11.2978 3.5477 9.82026 4.17292C8.39805 4.77378 7.10592 5.64488 6.01551 6.73792C4.92247 7.82833 4.05137 9.12046 3.45051 10.5427C2.82529 12.0202 2.51001 13.5859 2.51001 15.2024C2.51001 18.748 4.06771 22.0878 6.78234 24.3696L6.82776 24.407C6.98273 24.5353 7.17778 24.6074 7.37817 24.6074H21.5845C21.7849 24.6074 21.98 24.5353 22.1349 24.407L22.1804 24.3696C24.8923 22.0878 26.45 18.748 26.45 15.2024C26.45 13.5859 26.1321 12.0202 25.5095 10.5427ZM21.1437 22.5768H7.81635C6.78393 21.6459 5.95878 20.5083 5.39445 19.2379C4.83012 17.9675 4.53922 16.5926 4.54063 15.2024C4.54063 12.5466 5.57465 10.051 7.45298 8.17539C9.33131 6.29706 11.8268 5.26305 14.48 5.26305C17.1359 5.26305 19.6314 6.29706 21.507 8.17539C23.3854 10.0537 24.4194 12.5493 24.4194 15.2024C24.4194 18.0239 23.2304 20.6931 21.1437 22.5768ZM17.4592 11.5019C17.419 11.4621 17.3647 11.4398 17.3082 11.4398C17.2517 11.4398 17.1974 11.4621 17.1572 11.5019L14.8995 13.7596C14.3999 13.626 13.8468 13.7543 13.454 14.147C13.3149 14.2859 13.2045 14.4508 13.1292 14.6324C13.0539 14.8139 13.0152 15.0085 13.0152 15.2051C13.0152 15.4016 13.0539 15.5963 13.1292 15.7778C13.2045 15.9594 13.3149 16.1243 13.454 16.2632C13.5929 16.4023 13.7578 16.5126 13.9393 16.5879C14.1209 16.6632 14.3155 16.702 14.5121 16.702C14.7086 16.702 14.9032 16.6632 15.0848 16.5879C15.2664 16.5126 15.4313 16.4023 15.5701 16.2632C15.7562 16.0776 15.89 15.8463 15.9581 15.5925C16.0261 15.3387 16.0259 15.0714 15.9576 14.8177L18.2153 12.5599C18.2981 12.4771 18.2981 12.3408 18.2153 12.258L17.4592 11.5019ZM13.8922 8.78992H15.0678C15.1854 8.78992 15.2816 8.69373 15.2816 8.57617V6.43867C15.2816 6.32111 15.1854 6.22492 15.0678 6.22492H13.8922C13.7746 6.22492 13.6784 6.32111 13.6784 6.43867V8.57617C13.6784 8.69373 13.7746 8.78992 13.8922 8.78992ZM20.8391 14.6146V15.7902C20.8391 15.9078 20.9353 16.004 21.0528 16.004H23.1903C23.3079 16.004 23.4041 15.9078 23.4041 15.7902V14.6146C23.4041 14.497 23.3079 14.4009 23.1903 14.4009H21.0528C20.9353 14.4009 20.8391 14.497 20.8391 14.6146ZM21.1784 9.34567L20.3474 8.51472C20.3073 8.47494 20.253 8.45262 20.1965 8.45262C20.14 8.45262 20.0857 8.47494 20.0455 8.51472L18.5332 10.027C18.4935 10.0672 18.4711 10.1214 18.4711 10.178C18.4711 10.2345 18.4935 10.2887 18.5332 10.3289L19.3642 11.1599C19.447 11.2427 19.5833 11.2427 19.6661 11.1599L21.1784 9.64759C21.2612 9.56477 21.2612 9.4285 21.1784 9.34567ZM8.92518 8.51472C8.88501 8.47494 8.83076 8.45262 8.77422 8.45262C8.71769 8.45262 8.66343 8.47494 8.62326 8.51472L7.79231 9.34567C7.75253 9.38585 7.73021 9.4401 7.73021 9.49663C7.73021 9.55317 7.75253 9.60742 7.79231 9.64759L9.30459 11.1599C9.38742 11.2427 9.52368 11.2427 9.60651 11.1599L10.4375 10.3289C10.5203 10.2461 10.5203 10.1098 10.4375 10.027L8.92518 8.51472ZM7.80032 14.4009H5.66282C5.54526 14.4009 5.44907 14.497 5.44907 14.6146V15.7902C5.44907 15.9078 5.54526 16.004 5.66282 16.004H7.80032C7.91788 16.004 8.01407 15.9078 8.01407 15.7902V14.6146C8.01407 14.497 7.91788 14.4009 7.80032 14.4009Z" fill="#484848"/>
</svg>
