<svg width="20" height="20" viewBox="0 0 20 20" fill="none" xmlns="http://www.w3.org/2000/svg">
<path d="M19.406 4.08625L10.406 0.08625C10.146 -0.02875 9.853 -0.02875 9.593 0.08625L0.593 4.08625C0.573 4.09525 0.559 4.11025 0.539 4.12125C0.511 4.13525 0.481 4.14425 0.455 4.16125C0.433 4.17625 0.416 4.19525 0.395 4.21125C0.367 4.23225 0.34 4.25525 0.315 4.27925C0.274 4.31825 0.238 4.36025 0.205 4.40525C0.185 4.43325 0.164 4.45825 0.146 4.48625C0.115 4.53925 0.0919999 4.59425 0.0699999 4.65125C0.0609999 4.67825 0.047 4.70325 0.039 4.73025C0.015 4.81725 0 4.90725 0 5.00025V15.0002C0 15.3962 0.232 15.7532 0.594 15.9142L9.594 19.9142C9.724 19.9722 9.862 20.0002 10 20.0002C10.139 20.0002 10.273 19.9612 10.402 19.9042L10.406 19.9142L19.406 15.9142C19.768 15.7532 20 15.3962 20 15.0002V5.00025C20 4.60425 19.768 4.24725 19.406 4.08625ZM10 2.09525L16.538 5.00025L10 7.90525L8.692 7.32425L3.463 5.00025L10 2.09525ZM11 17.4613V9.65025L18 6.53925V14.3512L11 17.4613Z" fill="#484848"/>
</svg>
