<svg width="29" height="29" viewBox="0 0 29 29" fill="none" xmlns="http://www.w3.org/2000/svg">
<path d="M6.1512 10.5734C6.6336 9.42862 7.3248 8.40262 8.2032 7.52422C9.0864 6.64222 10.1124 5.95102 11.2536 5.47222C13.5756 4.49302 16.2708 4.47982 18.6096 5.42302C18.666 7.03702 19.9728 8.31982 21.6 8.31982C23.2632 8.31982 24.6 6.98302 24.6 5.31982C24.6 3.65662 23.2632 2.31982 21.6 2.31982C20.7732 2.31982 20.0256 2.65102 19.4844 3.18982C16.5672 2.02222 13.2168 2.04022 10.3224 3.26062C8.8944 3.86062 7.6104 4.72462 6.5064 5.82742C5.4072 6.92542 4.5444 8.20942 3.9408 9.64102C3.3168 11.1206 3 12.695 3 14.3198H5.4C5.4 13.0166 5.6532 11.7566 6.1512 10.5734ZM23.8476 18.0662C23.3664 19.2086 22.6752 20.2358 21.7956 21.1154C20.916 21.995 19.8888 22.6862 18.7452 23.1674C16.422 24.1466 13.7268 24.1598 11.3892 23.2166C11.334 21.6026 10.0272 20.3198 8.4 20.3198C6.7368 20.3198 5.4 21.6566 5.4 23.3198C5.4 24.983 6.7368 26.3198 8.4 26.3198C9.2268 26.3198 9.9744 25.9886 10.5156 25.4498C11.94 26.0222 13.446 26.3198 15 26.3198C16.6248 26.3198 18.198 26.003 19.6764 25.3802C21.1068 24.7766 22.392 23.9126 23.4924 22.8122C24.5928 21.7118 25.4568 20.4278 26.0604 18.9974C26.6832 17.5178 27 15.9446 27 14.3198H24.6C24.6 15.6218 24.3468 16.8818 23.8476 18.0662Z" fill="#BDBDBD"/>
<path d="M15 8.87451C11.9976 8.87451 9.55444 11.3177 9.55444 14.3201C9.55444 17.3225 11.9976 19.7657 15 19.7657C18.0024 19.7657 20.4456 17.3225 20.4456 14.3201C20.4456 11.3177 18.0024 8.87451 15 8.87451Z" fill="#BDBDBD"/>
</svg>
