<svg width="29" height="29" viewBox="0 0 29 29" fill="none" xmlns="http://www.w3.org/2000/svg">
<path d="M14.8 2.08008C8.18319 2.08008 2.79999 7.46328 2.79999 14.0801C2.79999 20.6969 8.18319 26.0801 14.8 26.0801C21.4168 26.0801 26.8 20.6969 26.8 14.0801C26.8 7.46328 21.4168 2.08008 14.8 2.08008ZM14.8 23.6801C9.50679 23.6801 5.19999 19.3733 5.19999 14.0801C5.19999 12.6785 5.50959 11.3501 6.05079 10.1489C6.23559 10.2569 6.42039 10.3673 6.59799 10.4801C7.07319 10.7801 7.54719 11.0801 8.14119 11.3057C8.73399 11.5301 9.44679 11.6801 10.396 11.6801C11.3464 11.6801 12.0592 11.5301 12.6532 11.3045C13.2472 11.0789 13.7224 10.7801 14.1976 10.4801C14.6728 10.1801 15.148 9.88008 15.742 9.65448C16.3348 9.43008 17.0476 9.28008 17.998 9.28008C18.9484 9.28008 19.6612 9.43008 20.254 9.65568C20.848 9.88008 21.3232 10.1801 21.7984 10.4801C22.2736 10.7801 22.7488 11.0801 23.3428 11.3057C23.5564 11.3861 23.7916 11.4521 24.04 11.5109C24.2692 12.3293 24.4 13.1885 24.4 14.0801C24.4 19.3733 20.0932 23.6801 14.8 23.6801Z" fill="#BDBDBD"/>
<path d="M10.6001 16.4804C11.5942 16.4804 12.4001 15.6745 12.4001 14.6804C12.4001 13.6863 11.5942 12.8804 10.6001 12.8804C9.60597 12.8804 8.80008 13.6863 8.80008 14.6804C8.80008 15.6745 9.60597 16.4804 10.6001 16.4804Z" fill="#BDBDBD"/>
<path d="M19 16.4804C19.9941 16.4804 20.8 15.6745 20.8 14.6804C20.8 13.6863 19.9941 12.8804 19 12.8804C18.0059 12.8804 17.2 13.6863 17.2 14.6804C17.2 15.6745 18.0059 16.4804 19 16.4804Z" fill="#BDBDBD"/>
</svg>
