<svg width="29" height="28" viewBox="0 0 29 28" fill="none" xmlns="http://www.w3.org/2000/svg">
<path d="M16.3895 4.9213C15.9039 2.91946 13.0561 2.91946 12.5705 4.9213C12.2559 6.2152 10.7739 6.82852 9.63842 6.1354C7.87826 5.0638 5.86502 7.07818 6.93662 8.8372C7.09771 9.1014 7.19413 9.3999 7.21805 9.70841C7.24197 10.0169 7.19271 10.3267 7.07427 10.6126C6.95584 10.8984 6.77157 11.1523 6.53648 11.3535C6.30139 11.5547 6.02211 11.6976 5.72138 11.7704C3.71954 12.2561 3.71954 15.1038 5.72138 15.5894C6.02184 15.6625 6.30083 15.8054 6.53565 16.0066C6.77048 16.2078 6.95452 16.4615 7.07282 16.7472C7.19112 17.0329 7.24034 17.3425 7.21647 17.6508C7.19261 17.9591 7.09634 18.2574 6.93548 18.5215C5.86388 20.2817 7.87826 22.2949 9.63728 21.2233C9.90148 21.0622 10.2 20.9658 10.5085 20.9419C10.817 20.918 11.1268 20.9672 11.4127 21.0857C11.6985 21.2041 11.9524 21.3884 12.1536 21.6234C12.3548 21.8585 12.4976 22.1378 12.5705 22.4385C13.0561 24.4404 15.9039 24.4404 16.3895 22.4385C16.4626 22.1381 16.6055 21.8591 16.8067 21.6243C17.0079 21.3894 17.2616 21.2054 17.5473 21.0871C17.833 20.9688 18.1426 20.9196 18.4509 20.9434C18.7592 20.9673 19.0575 21.0636 19.3216 21.2244C21.0817 22.296 23.095 20.2817 22.0234 18.5226C21.8623 18.2584 21.7659 17.9599 21.7419 17.6514C21.718 17.3429 21.7673 17.0331 21.8857 16.7473C22.0042 16.4614 22.1884 16.2075 22.4235 16.0063C22.6586 15.8051 22.9379 15.6623 23.2386 15.5894C25.2405 15.1038 25.2405 12.2561 23.2386 11.7704C22.9382 11.6974 22.6592 11.5544 22.4244 11.3532C22.1895 11.1521 22.0055 10.8983 21.8872 10.6126C21.7689 10.3269 21.7197 10.0173 21.7435 9.70904C21.7674 9.40075 21.8637 9.10243 22.0245 8.83834C23.0961 7.07818 21.0817 5.06494 19.3227 6.13654C19.0585 6.29763 18.76 6.39405 18.4515 6.41797C18.143 6.44189 17.8332 6.39263 17.5473 6.27419C17.2615 6.15576 17.0076 5.97149 16.8064 5.7364C16.6052 5.50131 16.4624 5.22203 16.3895 4.9213Z" stroke="#BDBDBD" stroke-width="2.28" stroke-linecap="round" stroke-linejoin="round"/>
<path d="M16.8983 16.0981C17.5397 15.4567 17.9 14.5868 17.9 13.6798C17.9 12.7727 17.5397 11.9028 16.8983 11.2615C16.2569 10.6201 15.387 10.2598 14.48 10.2598C13.573 10.2598 12.7031 10.6201 12.0617 11.2615C11.4203 11.9028 11.06 12.7727 11.06 13.6798C11.06 14.5868 11.4203 15.4567 12.0617 16.0981C12.7031 16.7394 13.573 17.0998 14.48 17.0998C15.387 17.0998 16.2569 16.7394 16.8983 16.0981Z" stroke="#BDBDBD" stroke-width="2.28" stroke-linecap="round" stroke-linejoin="round"/>
</svg>
